<svg version="1.1" xmlns="http://www.w3.org/2000/svg" xmlns:xlink="http://www.w3.org/1999/xlink" width="438.54901123046875" height="438.54901123046875" style="enable-background:new 0 0 438.549 438.549;" xml:space="preserve"><rect id="backgroundrect" width="100%" height="100%" x="0" y="0" fill="none" stroke="none"/>
















<g class="currentLayer" style=""><title>Layer 1</title><g id="svg_1" class="" fill-opacity="1" fill="#ffffff">
	<path d="M409.1319885253906,114.02951979637146 c-19.607999801635742,-33.59600067138672 -46.20500183105469,-60.194000244140625 -79.7979965209961,-79.80000305175781 C295.7359924316406,14.622522115707397 259.0570068359375,4.821521520614624 219.27099609375,4.821521520614624 c-39.78099822998047,0 -76.47200012207031,9.803999900817871 -110.06300354003906,29.408000946044922 c-33.59600067138672,19.604999542236328 -60.19200134277344,46.20399856567383 -79.80000305175781,79.80000305175781 C9.803000450134277,147.62452101707458 0,184.31052565574646 0,224.08652663230896 c0,47.779998779296875 13.9399995803833,90.74500274658203 41.82699966430664,128.906005859375 c27.884000778198242,38.16400146484375 63.90599822998047,64.5719985961914 108.06300354003906,79.22699737548828 c5.139999866485596,0.9539999961853027 8.944999694824219,0.28299999237060547 11.418999671936035,-1.996000051498413 c2.4749999046325684,-2.2820000648498535 3.7109999656677246,-5.139999866485596 3.7109999656677246,-8.562000274658203 c0,-0.5709999799728394 -0.04899999871850014,-5.708000183105469 -0.14399999380111694,-15.416999816894531 c-0.09799999743700027,-9.708999633789062 -0.14399999380111694,-18.179000854492188 -0.14399999380111694,-25.4060001373291 l-6.566999912261963,1.1360000371932983 c-4.186999797821045,0.7670000195503235 -9.468999862670898,1.0920000076293945 -15.845999717712402,1 c-6.374000072479248,-0.08900000154972076 -12.991000175476074,-0.7570000290870667 -19.841999053955078,-1.9989999532699585 c-6.854000091552734,-1.2309999465942383 -13.229000091552734,-4.085999965667725 -19.1299991607666,-8.559000015258789 c-5.8979997634887695,-4.4730000495910645 -10.085000038146973,-10.32800006866455 -12.5600004196167,-17.555999755859375 l-2.8550000190734863,-6.570000171661377 c-1.902999997138977,-4.374000072479248 -4.89900016784668,-9.232999801635742 -8.991999626159668,-14.559000015258789 c-4.0929999351501465,-5.330999851226807 -8.232000350952148,-8.944999694824219 -12.418999671936035,-10.847999572753906 l-1.9989999532699585,-1.430999994277954 c-1.3320000171661377,-0.9509999752044678 -2.568000078201294,-2.0980000495910645 -3.7109999656677246,-3.428999900817871 c-1.1419999599456787,-1.3309999704360962 -1.996999979019165,-2.6630001068115234 -2.568000078201294,-3.996999979019165 c-0.5720000267028809,-1.3350000381469727 -0.09799999743700027,-2.430000066757202 1.4270000457763672,-3.2890000343322754 c1.524999976158142,-0.859000027179718 4.281000137329102,-1.2760000228881836 8.279999732971191,-1.2760000228881836 l5.708000183105469,0.8529999852180481 c3.806999921798706,0.7630000114440918 8.515999794006348,3.0420000553131104 14.133000373840332,6.85099983215332 c5.613999843597412,3.805999994277954 10.229000091552734,8.753999710083008 13.845999717712402,14.842000007629395 c4.380000114440918,7.806000232696533 9.656999588012695,13.753999710083008 15.845999717712402,17.847000122070312 c6.184000015258789,4.0929999351501465 12.418999671936035,6.136000156402588 18.698999404907227,6.136000156402588 c6.28000020980835,0 11.704000473022461,-0.47600001096725464 16.27400016784668,-1.4229999780654907 c4.565000057220459,-0.9520000219345093 8.847999572753906,-2.382999897003174 12.847000122070312,-4.284999847412109 c1.7130000591278076,-12.758000373840332 6.376999855041504,-22.55900001525879 13.98799991607666,-29.40999984741211 c-10.847999572753906,-1.1399999856948853 -20.60099983215332,-2.8570001125335693 -29.263999938964844,-5.139999866485596 c-8.657999992370605,-2.2860000133514404 -17.604999542236328,-5.995999813079834 -26.834999084472656,-11.140000343322754 c-9.234999656677246,-5.13700008392334 -16.895999908447266,-11.515999794006348 -22.985000610351562,-19.125999450683594 c-6.090000152587891,-7.613999843597412 -11.088000297546387,-17.610000610351562 -14.987000465393066,-29.979000091552734 c-3.9010000228881836,-12.37399959564209 -5.8520002365112305,-26.648000717163086 -5.8520002365112305,-42.82600021362305 c0,-23.03499984741211 7.519999980926514,-42.637001037597656 22.55699920654297,-58.81700134277344 c-7.044000148773193,-17.31800079345703 -6.379000186920166,-36.731998443603516 1.996999979019165,-58.2400016784668 c5.519999980926514,-1.715000033378601 13.706000328063965,-0.42800000309944153 24.554000854492188,3.8529999256134033 c10.850000381469727,4.2829999923706055 18.79400062561035,7.952000141143799 23.84000015258789,10.994000434875488 c5.046000003814697,3.0409998893737793 9.08899974822998,5.618000030517578 12.135000228881836,7.708000183105469 c17.704999923706055,-4.947000026702881 35.97600173950195,-7.421000003814697 54.81800079345703,-7.421000003814697 s37.117000579833984,2.4739999771118164 54.823001861572266,7.421000003814697 l10.848999977111816,-6.848999977111816 c7.419000148773193,-4.570000171661377 16.18000030517578,-8.758000373840332 26.261999130249023,-12.5649995803833 c10.088000297546387,-3.805000066757202 17.802000045776367,-4.853000164031982 23.134000778198242,-3.138000011444092 c8.562000274658203,21.509000778198242 9.324999809265137,40.922000885009766 2.2790000438690186,58.2400016784668 c15.03600025177002,16.18000030517578 22.55900001525879,35.7869987487793 22.55900001525879,58.81700134277344 c0,16.17799949645996 -1.9579999446868896,30.496999740600586 -5.853000164031982,42.965999603271484 c-3.9000000953674316,12.470999717712402 -8.940999984741211,22.457000732421875 -15.125,29.979000091552734 c-6.190999984741211,7.520999908447266 -13.901000022888184,13.850000381469727 -23.131000518798828,18.986000061035156 c-9.232000350952148,5.139999866485596 -18.18199920654297,8.850000381469727 -26.84000015258789,11.13599967956543 c-8.661999702453613,2.2860000133514404 -18.415000915527344,4.004000186920166 -29.26300048828125,5.145999908447266 c9.894000053405762,8.562000274658203 14.842000007629395,22.07699966430664 14.842000007629395,40.53900146484375 v60.23699951171875 c0,3.421999931335449 1.190000057220459,6.2789998054504395 3.572000026702881,8.562000274658203 c2.378999948501587,2.2790000438690186 6.136000156402588,2.950000047683716 11.276000022888184,1.9950000047683716 c44.16299819946289,-14.652999877929688 80.18499755859375,-41.0620002746582 108.06800079345703,-79.22599792480469 c27.8799991607666,-38.1609992980957 41.82500076293945,-81.1259994506836 41.82500076293945,-128.906005859375 C438.5360107421875,184.30751967430115 428.7279968261719,147.62452101707458 409.1319885253906,114.02951979637146 z" id="svg_2" fill="#ffffff"/>
</g><g id="svg_3">
</g><g id="svg_4">
</g><g id="svg_5">
</g><g id="svg_6">
</g><g id="svg_7">
</g><g id="svg_8">
</g><g id="svg_9">
</g><g id="svg_10">
</g><g id="svg_11">
</g><g id="svg_12">
</g><g id="svg_13">
</g><g id="svg_14">
</g><g id="svg_15">
</g><g id="svg_16">
</g><g id="svg_17">
</g></g></svg>